<svg height="512pt" viewBox="0 0 512 512" width="512pt" xmlns="http://www.w3.org/2000/svg"><path d="m436 331h-150l60 73v78h-60v30h150v-30h-60v-78zm0 0"/><path d="m466 181c-24.851562 0-45 20.148438-45 45s20.148438 45 45 45 46-20.148438 46-45-21.148438-45-46-45zm0 0"/><path d="m461.386719 300.53125c-34.113281-2.117188-62.203125-26.832031-68.867188-59.53125h-155.796875l-2.757812 27.558594 27.035156 32.441406h200zm0 0"/><path d="m22.421875 422h166.15625l20.992187-211h-209.570312zm0 0"/><path d="m5.546875 181h198.476563l-39.996094-60h-117.054688zm0 0"/><path d="m60 0h91v91h-91zm0 0"/><path d="m185.578125 452h-160.15625l6 60h148.15625zm0 0"/></svg>